<?xml version="1.0" encoding="utf-8"?>
<!-- Generator: Adobe Illustrator 25.4.1, SVG Export Plug-In . SVG Version: 6.00 Build 0)  -->
<svg version="1.1" id="Layer_1" xmlns="http://www.w3.org/2000/svg" xmlns:xlink="http://www.w3.org/1999/xlink" x="0px" y="0px"
	 viewBox="0 0 612 792" style="enable-background:new 0 0 612 792;" xml:space="preserve">
<style type="text/css">
	.st0{font-family:'Pretendard-Black';}
	.st1{font-size:60px;}
	.st2{fill:#726658;}
	.st3{fill:#006838;}
</style>
<g>
	<text transform="matrix(1 0 0 1 102.4332 136.9765)" class="st0 st1">Arborinlove</text>
	<path class="st2" d="M474.67,112.05c0.5,5.61,0.61,13.15-0.88,21.86c-1.57,9.2-4.4,16.6-6.87,21.86H487
		c-2.33-5.27-4.95-12.62-6.35-21.68c-1.34-8.72-1.11-16.25-0.53-21.86"/>
	<path class="st3" d="M465.53,76.29c-0.99-7.11,4.58-13.17,10.74-13.17c5.83,0,11.2,5.44,10.84,12.2c6.97-4.43,15.11-1.96,17.52,3
		c1.68,3.45,0.63,8.21-2.49,11.84c6.73,2.55,9,10.06,6.36,14.49c-2.3,3.86-8.51,5.65-13.89,2.73c1.99,4.89,0.69,10.11-2.5,12.37
		c-4.13,2.93-11.9,1.22-15.14-5.55c-1.9,6.04-8.5,8.55-12.89,6.33c-3.8-1.92-5.83-7.33-3.7-12.25c-5.31,3.47-12.23,1.61-14.88-3.13
		c-2.78-4.96-0.4-12.2,5.81-14.61c-4.54-4.07-5.29-10.39-2.69-14.11C451.77,71.89,460.08,70.83,465.53,76.29z"/>
</g>
</svg>
